<svg id="Capa_1" data-name="Capa 1" xmlns="http://www.w3.org/2000/svg" viewBox="0 0 536.42 474.06"><defs><style>.cls-1{fill:#ffdf6c;}.cls-1,.cls-2,.cls-3,.cls-4,.cls-5{stroke:#000;}.cls-1,.cls-2,.cls-3,.cls-4,.cls-5,.cls-6{stroke-miterlimit:10;}.cls-1,.cls-2,.cls-3,.cls-4{stroke-width:0.5px;}.cls-2,.cls-6{fill:none;}.cls-3{fill:#3f3f3f;}.cls-4,.cls-5{fill:#fff;}.cls-6{stroke:#ffdf6c;stroke-width:5px;}</style></defs><path class="cls-1" d="M1097.86,496.87a221.43,221.43,0,0,1-61.07,153c-9.56-24.21-27-47.16-46.91-67.57a142.63,142.63,0,0,0-98.17-227.13c7.92-27.25,19.65-53.76,37-74.1h0C1025.81,304.84,1097.86,392.44,1097.86,496.87Z" transform="translate(-561.69 -274.44)"/><path class="cls-2" d="M1036.79,649.86a222.2,222.2,0,0,1-350.9-37.41V381.29A222.54,222.54,0,0,1,928.71,281.06c-17.35,20.34-29.08,46.85-37,74.1a142.63,142.63,0,0,1,98.17,227.13C1009.83,602.7,1027.23,625.65,1036.79,649.86Z" transform="translate(-561.69 -274.44)"/><path class="cls-2" d="M1018.28,496.87a142.61,142.61,0,1,1-142.6-142.6,142.47,142.47,0,0,1,142.6,142.6Z" transform="translate(-561.69 -274.44)"/><path class="cls-3" d="M685.89,317.66v401.4H567.15a5.21,5.21,0,0,1-5.21-5.21V288.35a10,10,0,0,1,13-9.53L682.4,312.89A5,5,0,0,1,685.89,317.66Z" transform="translate(-561.69 -274.44)"/><path class="cls-4" d="M1559.13,411.31" transform="translate(-561.69 -274.44)"/><path class="cls-5" d="M1361.94,519.76" transform="translate(-561.69 -274.44)"/><line class="cls-6" x1="0.25" y1="471.56" x2="536.17" y2="466.16"/></svg>